<?xml version="1.0" encoding="UTF-8"?>
<svg id="Layer_2" data-name="Layer 2" xmlns="http://www.w3.org/2000/svg" viewBox="0 0 46.71 37.76">
  <defs>
    <style>
      .cls-1 {
        fill: #dd2e44;
      }

      .cls-2 {
        fill: #f4abba;
      }

      .cls-3 {
        fill: #ea596e;
      }
    </style>
  </defs>
  <g id="Layer_1-2" data-name="Layer 1">
    <g>
      <path class="cls-3" d="M39.51,30.64c0,.4,0,.9-.2,1.3-.7,2.9-3.9,6.1-8.3,5.8-4.1-.3-7.4-2.2-7.4-4.9s3.3-4.9,7.4-4.9,8.5,0,8.6,2.8h0l-.1-.1Z"/>
      <path class="cls-1" d="M31.01,28.24c-2.2,0-7.1.6-8.3.6-2,0-3.7,1.3-3.7,2.9s.4,1.4,1,1.9c0,0,1.4,1.4,3.8.7,1.1-.3,2.8-2.4,5.8-2.8,1.5-.2,4.3,1,9.4,1,.2-.5.3-.7.3-.7,0-2.8-4.3-3.6-8.3-3.6h0Z"/>
      <path class="cls-2" d="M39.31,31.84s3-.6,4.8-3c2.1-2.8,1.8-5.8,1.8-5.8,2.1-4.1-.6-7.8-.6-7.8-.3-4.2-3-6-3-6-1.8-4.1-5.5-5.2-5.5-5.2-3-3.5-8.2-3.3-8.2-3.3,0,0-4.9-1.8-11.7.2-1.1.4-4.9,1.1-7.7,2.8C.51,9.04-.09,17.34,0,18.74c.6,7.5,5.9,8.9,9.3,9.6.7,2.1,3.7,6.1,8.9,4.6,6.4-1.1,9-3,10.6-3s5.9,1.7,10.4,2h0l.1-.1Z"/>
      <g>
        <path class="cls-3" d="M23.11,19.84c3.1-1.7,4.8-1.6,6.4-1.4h1.4c2.7,0,4.8-1.2,5.8-2.3.3-.3.2-.7,0-.9-.3-.3-.7-.2-.9,0-.7.8-2.6,1.8-4.8,1.8h-1.2c-1.6-.2-3.6-.4-7.1,1.6-.9.5-2.1.6-3.4.8-3-4.2-1.2-7.9-.6-8.9h.2c.6,0,1.1,0,1.6-.4.3-.2.5-.6.3-.9s-.6-.5-.9-.3c-.8.5-2,.2-2.5-.6-.2-.3-.6-.4-.9-.2-.3.2-.4.6-.2.9.3.5.7.8,1.3,1.1-.7,1.4-2,5.2.5,9.3-1.8.2-3.6.5-5,1.3-.9.6-1.8,1.5-2.5,2.4-.8-.2-4-.9-4.5-4.3.4-.3.6-.6.7-1,0-.4,0-.7-.4-.8s-.7,0-.8.4c0,.3-.4.6-.6.6h-.8c-.4-.2-.7,0-.9.3-.2.4,0,.7.3.9.4.2.8.3,1.2.3s0,0,.2,0c.6,3.2,3.2,4.7,5,5.1-.3.6-.4,1-.5,1.6,0,.4.3.7.6.7h0c.4,0,.6-.3.6-.6.2-1.7,1.7-3.3,3-4.2,1.3-.8,3.2-1,5.1-1.2,1.8-.2,3.5-.3,4.8-1h-.3l-.2-.1ZM40.41,17.74c-.2.4,0,.7.3.9h.3c.3,0,.5,0,.6-.4,0,0,2.5-4.6-2.1-7.8-.3-.2-.7,0-.9.2-.2.3,0,.7.2.9,3.6,2.4,1.8,5.8,1.7,6h0l-.1.2ZM12.51,6.84c.2,0,.5,0,.6-.3,1.9-2.7,4.6-1.8,4.8-1.8.4,0,.7,0,.8-.4s0-.7-.4-.8c-1.3-.5-4.2-.6-6.3,2.2-.2.3-.2.7.2.9h.4l-.1.2ZM30.21,4.34c3-.3,4.3,1.9,4.4,2,0,.2.4.4.6.4h.4c.3-.2.5-.6.3-.9,0,0-1.8-3-5.7-2.7-.4,0-.6.4-.6.7s.4.6.7.6h0l-.1-.1ZM42.41,24.04c-.4,0-.7.3-.7.6,0,0-.2,2.3-2.6,3-.4,0-.6.5-.5.8,0,.3.4.5.6.5s.2,0,.2,0c3.2-1,3.5-4.2,3.5-4.2,0-.4-.3-.7-.6-.7h.1Z"/>
        <path class="cls-3" d="M9.11,17.44c0,.4,0,.7.5.8h.2c.3,0,.6-.2.6-.5.3-.9,1.3-1.6,2.2-1.4.4,0,.7-.2.8-.6,0-.4-.2-.7-.6-.8h-1.7c-1.6-2.7-1.3-5.4-1.3-5.4,0-.4-.2-.7-.6-.7s-.7.2-.7.6-.4,3.1,1.4,6.2c-.5.4-.8.9-.9,1.6h0l.1.2ZM24.21,14.14c.6-.5,1.4-.5,1.9,0,0,0,.3.2.5.2s.4,0,.5-.2c.3-.3.3-.7,0-.9-.3-.3-.6-.5-1.1-.6.4-1.4.3-1.9,0-3.1,0-.2,0-.5-.2-.6h0c-.5-1.8-.8-2.9,0-4.3.2-.3,0-.7-.2-.9-.3-.2-.7,0-.9.2-1.3,2-.8,3.5-.3,5.3h0c0,.4.2.6.2.8.4,1,.5,1.4,0,2.6-.5,0-1,.3-1.4.6-.3.3-.3.6,0,.9s.6.3.9,0v.2l.1-.2ZM32.71,10.14c.4,0,.8,0,1.2-.3.4-.2.5-.6.3-.9s-.6-.5-.9-.3c-.6.3-1.5,0-1.8-.6-.2-.4-.6-.5-.9-.3s-.5.6-.3.9c.3.5.6.8,1,1-.7,1.8-.3,3.6,0,4.6,0,.3.4.5.6.5h.2c.4,0,.6-.5.5-.8-.2-.6-.6-2.4,0-3.8h.2-.1ZM39.21,22.84c0-.4-.4-.6-.7-.6-1.4,0-2.5-.9-2.6-2.3,0-.4-.4-.6-.7-.6s-.6.4-.6.7c0,.8.4,1.5.8,2.1-1.1,1.3-2.5,1.7-3.3,1.8h-2c-.6,0-1.4-.2-2.3,0h0c0-.4,0-.9-.4-1.4-.2-.3-.6-.4-.9-.2-.3.2-.4.6-.2.9.2.3.2.7.2,1-.6.3-1.3.6-1.8.9-.9.6-1.7,1.1-2.9.8-1-.3-2-.3-2.9-.2,0-.4-.4-.7-.6-1s-.7-.3-.9,0c-.3.3-.3.7,0,.9,0,0,.2.3.3.5-1.5.6-2.2,1.7-2.3,1.7-.2.3-.2.7.2.9h.4c.2,0,.4,0,.6-.3,0,0,.7-1,2.2-1.4.7-.2,1.8-.2,2.9,0h.8c0,.3.2.6.2.7,0,.4.3.6.6.6h0c.4,0,.6-.4.6-.7,0,0,0-.5-.2-.9.6-.2,1.2-.6,1.7-.9.7-.5,1.5-1,2.5-1h4v.9c0,.4.2.7.6.7h0c.4,0,.6-.3.6-.6v-1.3c.9-.3,2.1-.8,3.1-1.9.6.4,1.3.6,1.9.6s.2,0,.3,0c.4,0,.6-.4.6-.7h0l.2.3Z"/>
      </g>
    </g>
  </g>
</svg>