<?xml version="1.0" encoding="UTF-8"?>
<svg id="Layer_2" data-name="Layer 2" xmlns="http://www.w3.org/2000/svg" viewBox="0 0 38.5 39.6">
  <defs>
    <style>
      .cls-1 {
        fill: #269;
      }

      .cls-2 {
        fill: #3b88c3;
      }

      .cls-3 {
        fill: #f5f8fa;
      }

      .cls-4 {
        fill: #fff;
      }

      .cls-5 {
        fill: #033f63;
      }

      .cls-6 {
        fill: #ccd6dd;
      }

      .cls-7 {
        fill: #55acee;
      }
    </style>
  </defs>
  <g id="Layer_1-2" data-name="Layer 1">
    <g>
      <ellipse class="cls-5" cx="34.8" cy="16.5" rx="2.8" ry="4"/>
      <ellipse class="cls-5" cx="3.7" cy="16.5" rx="2.8" ry="4"/>
      <path class="cls-5" d="M30.6,5.7c0,3.1-5.1,4.5-11.3,4.5s-11.3-1.4-11.3-4.5S13.1,0,19.3,0s11.3,2.5,11.3,5.7Z"/>
      <path class="cls-1" d="M32.9,6.3c0,1.6-1.2,1.7-2.8,1.7H8.5c-1.6,0-2.8,0-2.8-1.7s1.2-2.8,2.8-2.8h21.5c1.6,0,2.8,1.2,2.8,2.8h.1Z"/>
      <path class="cls-7" d="M32.9,6.9H5.7c-1.2,0-2.3,1-2.3,2.3v29.5h31.7V9.2c0-1.2-1-2.3-2.3-2.3h.1Z"/>
      <path class="cls-2" d="M38.5,37.4v-1.1c0-1.2-1-2.3-2.3-2.3h-12.4l-3.8,3.8c-.5.5-1.1.5-1.6,0l-3.8-3.8H2.3c-1.3,0-2.3,1-2.3,2.2v1.1c0,1.2,0,2.3,1.1,2.3h36.3c1.2,0,1.1-1,1.1-2.3v.1Z"/>
      <circle class="cls-4" cx="26.6" cy="16.5" r="5.1"/>
      <circle class="cls-5" cx="26.6" cy="16.5" r="3.1"/>
      <circle class="cls-4" cx="11.9" cy="16.5" r="5.1"/>
      <path class="cls-3" d="M31.7,28.9c0,1.6-1.2,2.8-2.8,2.8H9.6c-1.6,0-2.8-1.2-2.8-2.8s1.2-2.8,2.8-2.8h19.3c1.6,0,2.8,1.2,2.8,2.8Z"/>
      <path class="cls-6" d="M18.1,26h2.3v5.7h-2.3v-5.7ZM12.5,26h2.3v5.7h-2.3v-5.7ZM23.8,26h2.3v5.7h-2.3v-5.7ZM6.8,28.9c0,1.4.9,2.5,2.3,2.7v-5.6c-1.3.3-2.3,1.4-2.3,2.7h0v.2ZM29.5,26.1v5.6c1.3-.3,2.3-1.4,2.3-2.7s-.9-2.5-2.3-2.7h0v-.2Z"/>
      <circle class="cls-5" cx="11.9" cy="16.5" r="3.1"/>
    </g>
  </g>
</svg>